<svg xmlns="http://www.w3.org/2000/svg" width="566" height="216"><g transform="matrix(1.37685 0 0 1.37685 -149.2 -417.9)" fill="#fff"><path d="M178.4 442.5l52.1-30.1v-60.2L178.4 322l-52.2 30.2v60.2z" fill="#ff4e6a" stroke="#ff4e6a" stroke-width="34.9972" stroke-linecap="round" stroke-linejoin="round" stroke-dashoffset="16.4"/><circle cx="178.4" cy="382.3" r="17.4"/><g transform="translate(396.4 215.5)"><ellipse cx="-150.9" cy="107.3" rx="59.6" ry="29.8" transform="rotate(30 -297.5 15.7)" fill="none" stroke="#fff" stroke-width="3.5" stroke-linecap="round" stroke-linejoin="round" stroke-dashoffset="16.4"/><circle r="8.1" cy="167" cx="-173.2"/><circle r="7.8" cy="131.2" cx="-258.3"/><circle r="9.1" cy="196.7" cx="-227"/></g><g style="line-height:125%;-inkscape-font-specification:'URW Gothic L'" font-weight="600" font-size="62.4" font-family="URW Gothic L" letter-spacing="0" word-spacing="0" fill="#000"><path d="M269.8 402.4h8.3V386c0-4.7.3-6.7 1.4-8.3a7 7 0 016-3.2 6 6 0 015 2.2c1.2 1.5 1.7 4 1.7 8.6v17h8.3v-18.6c0-6.2-.6-9.2-2.5-11.8-2.2-3.3-6-5-10.8-5-4 0-6.7 1.2-9.7 4v-3.2h-7.7v34.6zM342.2 367.8h-7.6v4.6a12.8 12.8 0 00-11.3-5.4c-10.2 0-17.6 7.6-17.6 18.2 0 10.4 7.3 18 17.4 18a14 14 0 0011.5-5.3v4.5h7.6v-34.6zm-18 6.8c6 0 10.2 4.4 10.2 10.7 0 2.5-1 5.4-2.5 7.1a9.6 9.6 0 01-7.6 3.1c-6 0-10.2-4-10.2-10.1 0-6.3 4.2-10.8 10.1-10.8zM348.4 402.4h8.3V386c0-4.7.3-6.7 1.4-8.3a7 7 0 016.1-3.2 6 6 0 015 2.2c1.1 1.5 1.6 4 1.6 8.6v17h8.3v-18.6c0-6.2-.6-9.2-2.5-11.8-2.2-3.3-6-5-10.8-5-3.9 0-6.6 1.2-9.7 4v-3.2h-7.7v34.6zM402.6 367c-10 0-18.3 8.1-18.3 18 0 10 8.3 18.2 18.4 18.2 10 0 18.4-8.1 18.4-17.9 0-10.3-8-18.3-18.5-18.3zm0 7.6c5.6 0 10.1 4.7 10.1 10.5s-4.5 10.4-10 10.4c-5.6 0-10-4.6-10-10.6 0-5.6 4.6-10.3 10-10.3z" style="-inkscape-font-specification:'URW Gothic L Semi-Bold'"/></g><g style="line-height:125%" font-weight="400" font-size="50.5" font-family="Arial" letter-spacing="0" word-spacing="0" fill="#000"><path d="M428.7 392.2l4.3-.6q.2 4.2 1.6 5.7 1.4 1.5 3.8 1.5 1.8 0 3.1-.8t1.8-2.2q.5-1.5.5-4.6v-24.9h4.8V391q0 4.6-1.1 7-1.1 2.6-3.5 3.9-2.4 1.3-5.6 1.3-4.7 0-7.3-2.8-2.5-2.7-2.4-8zM454.8 390.9l4.5-.4q.3 2.7 1.5 4.4 1.1 1.7 3.6 2.8 2.5 1 5.6 1 2.7 0 4.8-.7 2-.8 3-2.2 1.1-1.5 1.1-3.2 0-1.7-1-3-1-1.2-3.2-2-1.5-.6-6.4-1.8-5-1.2-7-2.3-2.6-1.3-3.9-3.3-1.2-2-1.2-4.5 0-2.8 1.5-5.1 1.6-2.4 4.5-3.7 3-1.2 6.7-1.2 4 0 7 1.3 3.1 1.3 4.8 3.8 1.6 2.5 1.8 5.7l-4.6.4q-.4-3.5-2.5-5.2-2.2-1.8-6.3-1.8-4.4 0-6.4 1.6t-2 3.9q0 1.9 1.5 3.2 1.3 1.2 7.2 2.5 5.8 1.3 8 2.3 3.1 1.5 4.6 3.7 1.5 2.2 1.5 5.2 0 2.8-1.6 5.4-1.7 2.5-4.8 4-3 1.4-7 1.4-4.8 0-8.2-1.5-3.3-1.4-5.2-4.2-1.8-3-2-6.5zM486.4 402.5l14-18.9-12.3-17.3h5.7l6.5 9.3 3 4.4q1.2-2 2.8-4l7.3-9.7h5.2l-12.7 17 13.7 19.2h-6l-9-13-1.6-2.3-1.7 2.7-9.1 12.6h-5.8z" style="-inkscape-font-specification:Arial"/></g></g></svg>